<svg width="44" height="44" viewBox="0 0 44 44" fill="none" xmlns="http://www.w3.org/2000/svg">
<rect width="44" height="44" rx="10" fill="#30313B"/>
<path d="M29.0833 20.5833H30.5C31.6272 20.5833 32.7082 21.0311 33.5052 21.8281C34.3022 22.6252 34.75 23.7062 34.75 24.8333C34.75 25.9605 34.3022 27.0415 33.5052 27.8385C32.7082 28.6356 31.6272 29.0833 30.5 29.0833H29.0833M17.75 22V30.5M23.4167 22V30.5M12.0833 16.3333V33.3333C12.0833 34.0848 12.3818 34.8055 12.9132 35.3368C13.4446 35.8682 14.1652 36.1667 14.9167 36.1667H26.25C27.0014 36.1667 27.7221 35.8682 28.2535 35.3368C28.7848 34.8055 29.0833 34.0848 29.0833 33.3333V16.3333M24.8333 15.625C23.4167 15.625 22.7933 16.3333 20.5833 16.3333C18.3733 16.3333 17.75 15.625 16.3333 15.625C14.9167 15.625 13.8967 16.3333 12.7917 16.3333C11.8524 16.3333 10.9515 15.9602 10.2873 15.296C9.62314 14.6318 9.25 13.731 9.25 12.7917C9.25 11.8524 9.62314 10.9515 10.2873 10.2873C10.9515 9.62314 11.8524 9.25 12.7917 9.25C13.8967 9.25 15.0158 9.95834 16.3333 9.95834C17.6508 9.95834 18.3733 7.83334 20.5833 7.83334C22.7933 7.83334 23.4167 9.95834 24.8333 9.95834C26.25 9.95834 27.27 9.25 28.375 9.25C29.3143 9.25 30.2151 9.62314 30.8793 10.2873C31.5435 10.9515 31.9167 11.8524 31.9167 12.7917C31.9167 13.731 31.5435 14.6318 30.8793 15.296C30.2151 15.9602 29.3143 16.3333 28.375 16.3333C27.27 16.3333 26.25 15.625 24.8333 15.625Z" stroke="#DFB013" stroke-width="2" stroke-linecap="round" stroke-linejoin="round"/>
</svg>
